<svg xmlns="http://www.w3.org/2000/svg" xmlns:xlink="http://www.w3.org/1999/xlink" width="1000" zoomAndPan="magnify" viewBox="0 0 750 749.999995" height="1000" preserveAspectRatio="xMidYMid meet" version="1.2"><g id="269ef64537"><path style=" stroke:none;fill-rule:nonzero;fill:#471f96;fill-opacity:1;" d="M 475.855469 27.371094 C 470.707031 17.542969 473.164062 10.195312 482.96875 5.296875 C 492.796875 0.148438 500.144531 2.609375 505.300781 12.425781 C 510.199219 22.238281 507.742188 29.585938 497.914062 34.742188 C 488.101562 39.640625 480.753906 37.183594 475.855469 27.371094 Z M 273.867188 722.324219 C 278.765625 732.140625 276.304688 739.492188 266.484375 744.640625 C 256.675781 749.539062 249.324219 747.082031 244.429688 737.273438 C 239.535156 727.46875 241.734375 720.097656 251.542969 715.203125 C 261.363281 710.050781 268.714844 712.503906 273.867188 722.324219 Z M 490.898438 93.714844 C 481.105469 74.097656 485.761719 59.378906 505.394531 49.335938 C 525.023438 39.289062 539.984375 44.214844 549.773438 63.832031 C 559.820312 83.464844 554.910156 98.167969 535.277344 108.210938 C 515.648438 118.257812 500.941406 113.347656 490.898438 93.714844 Z M 258.574219 655.972656 C 268.625 675.605469 263.691406 690.566406 244.078125 700.355469 C 224.445312 710.402344 209.742188 705.488281 199.691406 685.855469 C 189.890625 666.496094 194.558594 651.523438 214.175781 641.734375 C 233.808594 631.6875 248.527344 636.335938 258.574219 655.972656 Z M 521.132812 189.519531 C 514.832031 177.050781 513.703125 164.351562 517.992188 151.671875 C 522.039062 138.726562 530.546875 129.121094 542.757812 122.808594 C 555.222656 116.5 567.910156 115.636719 580.597656 119.660156 C 593.527344 123.964844 603.152344 132.222656 609.453125 144.691406 C 615.75 157.148438 616.898438 169.601562 612.59375 182.527344 C 608.558594 195.214844 600.050781 204.824219 587.84375 211.136719 C 575.375 217.441406 562.675781 218.574219 549.746094 214.269531 C 537.058594 210.234375 527.429688 201.976562 521.132812 189.519531 Z M 228.578125 560.441406 C 234.882812 572.910156 235.765625 585.339844 231.722656 598.285156 C 227.433594 610.957031 219.179688 620.574219 206.714844 626.882812 C 194.246094 633.183594 181.800781 634.324219 168.871094 630.023438 C 156.183594 625.988281 146.5625 617.738281 140.257812 605.273438 C 133.957031 592.804688 132.832031 580.105469 137.121094 567.433594 C 141.164062 554.488281 149.417969 544.859375 161.882812 538.558594 C 174.347656 532.261719 187.039062 531.390625 199.722656 535.421875 C 212.65625 539.71875 222.023438 547.960938 228.578125 560.441406 Z M 566.328125 314.5 C 557.902344 298.304688 556.734375 281.46875 562.300781 264.222656 C 567.867188 246.972656 578.875 234.140625 595.308594 225.988281 L 653.929688 196.089844 L 713.71875 313.589844 C 738.710938 362.664062 742.714844 413.199219 725.496094 465.175781 C 708.28125 516.898438 675.519531 555.40625 626.988281 579.90625 C 577.917969 604.898438 527.65625 608.667969 475.679688 591.441406 C 423.703125 574.214844 385.453125 541.464844 360.933594 493.1875 L 271.019531 316.539062 C 262.851562 300.359375 250.019531 289.355469 232.785156 283.53125 C 215.535156 277.964844 198.6875 279.386719 182.507812 287.558594 C 166.0625 295.96875 155.054688 308.792969 149.488281 326.050781 C 143.921875 343.296875 145.089844 360.132812 153.515625 376.320312 L 183.398438 435.207031 C 191.554688 451.640625 192.988281 468.226562 187.414062 485.730469 C 181.847656 502.988281 170.851562 515.554688 154.40625 523.96875 L 95.527344 553.855469 L 35.753906 436.089844 C 10.75 387.28125 6.996094 336.761719 24.222656 284.785156 C 41.445312 232.808594 74.195312 194.558594 122.46875 170.042969 C 171.539062 145.046875 222.058594 141.292969 274.039062 158.519531 C 326.027344 175.488281 364.261719 208.496094 388.78125 256.765625 L 478.449219 433.152344 C 486.863281 449.601562 499.695312 460.605469 516.945312 466.167969 C 534.191406 471.734375 550.773438 470.558594 567.21875 462.148438 C 583.648438 453.992188 594.652344 441.160156 600.21875 423.910156 C 605.785156 406.664062 604.363281 389.8125 596.210938 373.378906 L 566.328125 314.5 "/><path style=" stroke:none;fill-rule:evenodd;fill:#2e8ec4;fill-opacity:1;" d="M 463.324219 484.472656 C 402.082031 481.199219 349.050781 449.980469 315.628906 404.074219 L 360.933594 493.1875 C 385.453125 541.464844 423.703125 574.214844 475.679688 591.441406 C 527.65625 608.667969 577.917969 604.898438 626.988281 579.90625 C 675.519531 555.40625 708.28125 516.898438 725.496094 465.175781 C 742.714844 413.199219 738.710938 362.664062 713.71875 313.589844 L 653.929688 196.089844 L 647.308594 199.34375 C 662.738281 229.328125 670.71875 263.5625 668.796875 299.582031 C 665.402344 363.140625 632.027344 417.871094 583.289062 451.132812 C 578.667969 455.535156 573.316406 459.109375 567.21875 462.148438 C 562.976562 464.238281 558.75 466.078125 554.292969 467.390625 C 526.792969 479.855469 495.742188 486.203125 463.324219 484.472656 Z M 286.390625 265.488281 C 253.96875 263.757812 222.921875 270.105469 195.160156 282.554688 C 190.960938 283.882812 186.75 285.457031 182.507812 287.558594 C 176.398438 290.839844 171.046875 294.425781 166.425781 298.828125 C 117.441406 331.820312 84.074219 386.550781 80.679688 450.105469 C 78.757812 486.128906 86.71875 520.617188 102.421875 550.355469 L 95.527344 553.855469 L 35.753906 436.089844 C 10.75 387.28125 6.996094 336.761719 24.222656 284.785156 C 41.445312 232.808594 74.195312 194.558594 122.46875 170.042969 C 171.539062 145.046875 222.058594 141.292969 274.039062 158.519531 C 326.027344 175.488281 364.261719 208.496094 388.78125 256.765625 L 434.082031 345.886719 C 400.683594 299.722656 347.628906 268.761719 286.390625 265.488281 "/></g></svg>