<svg xmlns="http://www.w3.org/2000/svg" xmlns:xlink="http://www.w3.org/1999/xlink" width="500" zoomAndPan="magnify" viewBox="0 0 375 374.999991" height="500" preserveAspectRatio="xMidYMid meet" version="1.2"><defs><clipPath id="bf8d0f3811"><path d="M 165 107 L 280.855469 107 L 280.855469 274.394531 L 165 274.394531 Z M 165 107 "/></clipPath><clipPath id="0ce792d461"><path d="M 94.105469 71.144531 L 210 71.144531 L 210 239 L 94.105469 239 Z M 94.105469 71.144531 "/></clipPath><clipPath id="65e79d6c5e"><rect x="0" width="56" y="0" height="12"/></clipPath></defs><g id="aefd15f61b"><g clip-rule="nonzero" clip-path="url(#bf8d0f3811)"><path style=" stroke:none;fill-rule:nonzero;fill:#e75e75;fill-opacity:1;" d="M 280.789062 273.652344 C 275.417969 265.09375 270.042969 256.535156 264.660156 247.976562 L 256.585938 235.164062 L 248.480469 222.351562 L 232.242188 196.746094 L 217.011719 172.757812 L 236.625 143.957031 L 241.785156 136.386719 C 243.515625 133.867188 245.230469 131.335938 246.96875 128.824219 L 257.398438 113.753906 L 261.617188 107.660156 L 205.992188 107.285156 L 204.816406 109.382812 C 203.105469 112.449219 201.429688 115.539062 199.738281 118.617188 L 198.472656 120.933594 L 197.222656 123.257812 L 194.714844 127.894531 L 189.757812 137.203125 L 187.230469 142.003906 C 186.265625 140.539062 185.300781 139.078125 184.335938 137.621094 L 181.378906 133.195312 L 178.394531 128.789062 L 175.40625 124.390625 L 172.378906 120.011719 C 170.347656 117.089844 168.292969 114.191406 166.203125 111.316406 C 166.140625 111.210938 166.054688 111.144531 165.9375 111.117188 C 165.824219 111.085938 165.714844 111.101562 165.609375 111.160156 C 165.507812 111.222656 165.441406 111.308594 165.410156 111.425781 C 165.382812 111.539062 165.394531 111.648438 165.457031 111.753906 C 166.972656 114.964844 168.53125 118.15625 170.128906 121.328125 L 172.523438 126.085938 L 174.949219 130.828125 L 177.394531 135.554688 L 179.863281 140.265625 C 181.523438 143.398438 183.183594 146.53125 184.867188 149.652344 L 187.296875 154.15625 L 190.191406 149.617188 C 192.078125 146.648438 193.921875 143.664062 195.789062 140.6875 L 201.339844 131.726562 L 204.089844 127.226562 L 205.464844 124.988281 L 206.828125 122.746094 C 208.203125 120.464844 209.585938 118.1875 210.953125 115.902344 C 212.042969 115.902344 245.300781 115.777344 246.621094 115.75 L 240.90625 124.828125 C 239.28125 127.414062 237.628906 129.980469 235.988281 132.558594 L 231.054688 140.28125 L 211.289062 171.152344 L 210.257812 172.757812 L 211.289062 174.25 L 228.425781 199.265625 L 245.597656 224.253906 L 254.1875 236.742188 L 262.800781 249.214844 C 268.542969 257.542969 274.300781 265.851562 280.082031 274.140625 C 280.148438 274.234375 280.238281 274.292969 280.351562 274.316406 C 280.464844 274.339844 280.570312 274.320312 280.667969 274.253906 C 280.765625 274.191406 280.824219 274.101562 280.847656 273.988281 C 280.871094 273.871094 280.851562 273.765625 280.789062 273.667969 Z M 280.789062 273.652344 "/></g><g clip-rule="nonzero" clip-path="url(#0ce792d461)"><path style=" stroke:none;fill-rule:nonzero;fill:#e75e75;fill-opacity:1;" d="M 204.902344 224.078125 L 202.511719 219.316406 L 200.085938 214.578125 L 197.636719 209.851562 L 195.171875 205.140625 C 193.507812 202.003906 191.855469 198.867188 190.167969 195.75 L 187.738281 191.246094 L 184.84375 195.789062 C 182.953125 198.753906 181.109375 201.738281 179.242188 204.71875 L 173.691406 213.679688 L 170.945312 218.179688 L 169.566406 220.417969 L 168.207031 222.660156 C 166.832031 224.941406 165.460938 227.222656 164.101562 229.5 C 163.011719 229.5 129.753906 229.632812 128.425781 229.660156 L 134.128906 220.582031 C 135.757812 217.996094 137.410156 215.425781 139.050781 212.851562 L 143.984375 205.125 L 163.75 174.253906 L 164.777344 172.648438 L 163.75 171.15625 L 146.613281 146.191406 L 129.4375 121.257812 L 120.851562 108.796875 L 112.226562 96.347656 C 106.492188 88.042969 100.734375 79.757812 94.953125 71.484375 C 94.890625 71.390625 94.800781 71.332031 94.691406 71.308594 C 94.578125 71.285156 94.476562 71.304688 94.378906 71.363281 C 94.28125 71.425781 94.21875 71.515625 94.191406 71.628906 C 94.164062 71.742188 94.183594 71.851562 94.242188 71.949219 C 99.621094 80.496094 104.996094 89.039062 110.371094 97.574219 L 118.449219 110.378906 L 126.554688 123.160156 L 142.785156 148.722656 L 158.023438 172.652344 L 138.421875 201.453125 L 133.257812 209.023438 C 131.53125 211.539062 129.820312 214.070312 128.078125 216.585938 L 117.644531 231.65625 L 113.429688 237.75 L 169.058594 238.121094 L 170.234375 236.007812 C 171.949219 232.941406 173.628906 229.851562 175.316406 226.773438 L 176.582031 224.457031 L 177.835938 222.140625 L 180.34375 217.503906 L 185.277344 208.207031 L 187.804688 203.410156 L 190.699219 207.785156 L 193.65625 212.207031 L 196.640625 216.621094 L 199.628906 221.019531 L 202.65625 225.398438 C 204.683594 228.316406 206.742188 231.214844 208.832031 234.089844 C 208.894531 234.179688 208.984375 234.234375 209.089844 234.253906 C 209.195312 234.277344 209.296875 234.257812 209.390625 234.203125 C 209.484375 234.148438 209.546875 234.066406 209.582031 233.960938 C 209.613281 233.859375 209.605469 233.757812 209.558594 233.65625 C 208.054688 230.453125 206.503906 227.261719 204.902344 224.078125 Z M 204.902344 224.078125 "/></g><g transform="matrix(1,0,0,1,160,318)"><g clip-path="url(#65e79d6c5e)"><g style="fill:#ffffff;fill-opacity:1;"><g transform="translate(0.450617, 8.490591)"><path style="stroke:none" d="M 2.015625 -5.484375 C 2.710938 -5.484375 3.300781 -5.378906 3.78125 -5.171875 C 4.269531 -4.960938 4.644531 -4.644531 4.90625 -4.21875 C 5.164062 -3.800781 5.296875 -3.289062 5.296875 -2.6875 C 5.296875 -1.8125 5.046875 -1.144531 4.546875 -0.6875 C 4.054688 -0.226562 3.296875 0 2.265625 0 L 0.671875 0 L 0.671875 -5.484375 Z M 2.265625 -0.53125 C 3.066406 -0.53125 3.675781 -0.703125 4.09375 -1.046875 C 4.507812 -1.398438 4.71875 -1.941406 4.71875 -2.671875 C 4.71875 -3.453125 4.484375 -4.023438 4.015625 -4.390625 C 3.546875 -4.765625 2.878906 -4.953125 2.015625 -4.953125 L 1.21875 -4.953125 L 1.21875 -0.53125 Z M 2.265625 -0.53125 "/></g></g><g style="fill:#ffffff;fill-opacity:1;"><g transform="translate(6.554528, 8.490591)"><path style="stroke:none" d="M 0.671875 -5.484375 L 1.21875 -5.484375 L 1.21875 0 L 0.671875 0 Z M 0.671875 -5.484375 "/></g></g><g style="fill:#ffffff;fill-opacity:1;"><g transform="translate(8.808154, 8.490591)"><path style="stroke:none" d="M 6.28125 -2.640625 L 6.28125 -2.625 C 6.28125 -2.050781 6.164062 -1.554688 5.9375 -1.140625 C 5.707031 -0.734375 5.382812 -0.421875 4.96875 -0.203125 C 4.550781 0.015625 4.070312 0.125 3.53125 0.125 C 2.914062 0.125 2.375 -0.00390625 1.90625 -0.265625 C 1.4375 -0.535156 1.070312 -0.890625 0.8125 -1.328125 C 0.5625 -1.765625 0.4375 -2.238281 0.4375 -2.75 C 0.4375 -3.257812 0.5625 -3.734375 0.8125 -4.171875 C 1.070312 -4.617188 1.425781 -4.972656 1.875 -5.234375 C 2.332031 -5.492188 2.859375 -5.625 3.453125 -5.625 C 3.941406 -5.625 4.382812 -5.535156 4.78125 -5.359375 C 5.1875 -5.179688 5.578125 -4.914062 5.953125 -4.5625 L 5.546875 -4.171875 C 5.234375 -4.460938 4.894531 -4.6875 4.53125 -4.84375 C 4.175781 -5.007812 3.820312 -5.09375 3.46875 -5.09375 C 3.007812 -5.09375 2.59375 -4.988281 2.21875 -4.78125 C 1.84375 -4.582031 1.546875 -4.300781 1.328125 -3.9375 C 1.117188 -3.582031 1.015625 -3.191406 1.015625 -2.765625 C 1.015625 -2.335938 1.125 -1.941406 1.34375 -1.578125 C 1.5625 -1.222656 1.863281 -0.9375 2.25 -0.71875 C 2.632812 -0.507812 3.066406 -0.40625 3.546875 -0.40625 C 3.898438 -0.40625 4.226562 -0.46875 4.53125 -0.59375 C 4.832031 -0.726562 5.082031 -0.921875 5.28125 -1.171875 C 5.488281 -1.429688 5.617188 -1.738281 5.671875 -2.09375 L 3.921875 -2.09375 L 3.921875 -2.640625 Z M 6.28125 -2.640625 "/></g></g><g style="fill:#ffffff;fill-opacity:1;"><g transform="translate(15.851719, 8.490591)"><path style="stroke:none" d="M 0.671875 -5.484375 L 1.21875 -5.484375 L 1.21875 0 L 0.671875 0 Z M 0.671875 -5.484375 "/></g></g><g style="fill:#ffffff;fill-opacity:1;"><g transform="translate(18.105345, 8.490591)"><path style="stroke:none" d="M 1.359375 -4.953125 L 0.125 -4.953125 L 0.125 -5.484375 L 3.125 -5.484375 L 3.125 -4.953125 L 1.90625 -4.953125 L 1.90625 0 L 1.359375 0 Z M 1.359375 -4.953125 "/></g></g><g style="fill:#ffffff;fill-opacity:1;"><g transform="translate(21.741708, 8.490591)"><path style="stroke:none" d="M 4.703125 0 L 3.859375 -1.796875 L 1.453125 -1.796875 L 0.609375 0 L 0.03125 0 L 2.59375 -5.484375 L 2.734375 -5.484375 L 5.265625 0 Z M 1.703125 -2.328125 L 3.609375 -2.328125 L 2.65625 -4.375 Z M 1.703125 -2.328125 "/></g></g><g style="fill:#ffffff;fill-opacity:1;"><g transform="translate(27.433086, 8.490591)"><path style="stroke:none" d="M 1.21875 -5.484375 L 1.21875 -0.53125 L 3.328125 -0.53125 L 3.328125 0 L 0.671875 0 L 0.671875 -5.484375 Z M 1.21875 -5.484375 "/></g></g><g style="fill:#ffffff;fill-opacity:1;"><g transform="translate(31.344472, 8.490591)"><path style="stroke:none" d=""/></g></g><g style="fill:#ffffff;fill-opacity:1;"><g transform="translate(33.84256, 8.490591)"><path style="stroke:none" d="M 1.84375 0.140625 C 1.476562 0.140625 1.160156 0.046875 0.890625 -0.140625 C 0.628906 -0.335938 0.394531 -0.632812 0.1875 -1.03125 L 0.65625 -1.3125 C 0.820312 -1.007812 1 -0.78125 1.1875 -0.625 C 1.382812 -0.46875 1.585938 -0.390625 1.796875 -0.390625 C 1.984375 -0.390625 2.15625 -0.429688 2.3125 -0.515625 C 2.46875 -0.609375 2.585938 -0.722656 2.671875 -0.859375 C 2.765625 -1.003906 2.8125 -1.160156 2.8125 -1.328125 C 2.8125 -1.492188 2.765625 -1.648438 2.671875 -1.796875 C 2.578125 -1.941406 2.441406 -2.09375 2.265625 -2.25 C 2.085938 -2.40625 1.78125 -2.660156 1.34375 -3.015625 C 1.144531 -3.171875 0.988281 -3.3125 0.875 -3.4375 C 0.757812 -3.5625 0.675781 -3.691406 0.625 -3.828125 C 0.570312 -3.972656 0.546875 -4.144531 0.546875 -4.34375 C 0.546875 -4.582031 0.601562 -4.800781 0.71875 -5 C 0.832031 -5.195312 0.988281 -5.347656 1.1875 -5.453125 C 1.394531 -5.566406 1.625 -5.625 1.875 -5.625 C 2.175781 -5.625 2.4375 -5.546875 2.65625 -5.390625 C 2.882812 -5.234375 3.101562 -5.015625 3.3125 -4.734375 L 2.859375 -4.390625 C 2.742188 -4.535156 2.640625 -4.65625 2.546875 -4.75 C 2.460938 -4.84375 2.363281 -4.914062 2.25 -4.96875 C 2.132812 -5.03125 2.003906 -5.0625 1.859375 -5.0625 C 1.703125 -5.0625 1.566406 -5.023438 1.453125 -4.953125 C 1.347656 -4.890625 1.265625 -4.804688 1.203125 -4.703125 C 1.140625 -4.597656 1.109375 -4.484375 1.109375 -4.359375 C 1.109375 -4.191406 1.160156 -4.03125 1.265625 -3.875 C 1.367188 -3.726562 1.519531 -3.582031 1.71875 -3.4375 C 2.125 -3.144531 2.4375 -2.898438 2.65625 -2.703125 C 2.875 -2.515625 3.050781 -2.304688 3.1875 -2.078125 C 3.320312 -1.847656 3.390625 -1.601562 3.390625 -1.34375 C 3.390625 -1.082031 3.320312 -0.835938 3.1875 -0.609375 C 3.050781 -0.390625 2.863281 -0.207031 2.625 -0.0625 C 2.394531 0.0703125 2.132812 0.140625 1.84375 0.140625 Z M 1.84375 0.140625 "/></g></g><g style="fill:#ffffff;fill-opacity:1;"><g transform="translate(37.944933, 8.490591)"><path style="stroke:none" d="M 0.671875 -5.484375 L 1.21875 -5.484375 L 1.21875 -3.1875 L 4.015625 -3.1875 L 4.015625 -5.484375 L 4.5625 -5.484375 L 4.5625 0 L 4.015625 0 L 4.015625 -2.65625 L 1.21875 -2.65625 L 1.21875 0 L 0.671875 0 Z M 0.671875 -5.484375 "/></g></g><g style="fill:#ffffff;fill-opacity:1;"><g transform="translate(43.54464, 8.490591)"><path style="stroke:none" d="M 3.328125 0.140625 C 2.773438 0.140625 2.273438 0.0078125 1.828125 -0.25 C 1.390625 -0.507812 1.046875 -0.859375 0.796875 -1.296875 C 0.546875 -1.734375 0.421875 -2.207031 0.421875 -2.71875 C 0.421875 -3.25 0.546875 -3.738281 0.796875 -4.1875 C 1.054688 -4.632812 1.40625 -4.984375 1.84375 -5.234375 C 2.28125 -5.492188 2.757812 -5.625 3.28125 -5.625 C 3.820312 -5.625 4.316406 -5.492188 4.765625 -5.234375 C 5.210938 -4.984375 5.566406 -4.640625 5.828125 -4.203125 C 6.085938 -3.765625 6.21875 -3.28125 6.21875 -2.75 C 6.21875 -2.21875 6.085938 -1.726562 5.828125 -1.28125 C 5.578125 -0.84375 5.226562 -0.492188 4.78125 -0.234375 C 4.34375 0.015625 3.859375 0.140625 3.328125 0.140625 Z M 3.3125 -0.390625 C 3.726562 -0.390625 4.113281 -0.488281 4.46875 -0.6875 C 4.832031 -0.894531 5.117188 -1.175781 5.328125 -1.53125 C 5.535156 -1.894531 5.640625 -2.300781 5.640625 -2.75 C 5.640625 -3.195312 5.53125 -3.597656 5.3125 -3.953125 C 5.09375 -4.316406 4.804688 -4.597656 4.453125 -4.796875 C 4.097656 -4.992188 3.71875 -5.09375 3.3125 -5.09375 C 2.90625 -5.09375 2.523438 -4.988281 2.171875 -4.78125 C 1.816406 -4.582031 1.53125 -4.300781 1.3125 -3.9375 C 1.101562 -3.582031 1 -3.175781 1 -2.71875 C 1 -2.28125 1.101562 -1.882812 1.3125 -1.53125 C 1.53125 -1.175781 1.8125 -0.894531 2.15625 -0.6875 C 2.507812 -0.488281 2.894531 -0.390625 3.3125 -0.390625 Z M 3.3125 -0.390625 "/></g></g><g style="fill:#ffffff;fill-opacity:1;"><g transform="translate(50.565279, 8.490591)"><path style="stroke:none" d="M 2.140625 -5.484375 C 2.753906 -5.484375 3.234375 -5.375 3.578125 -5.15625 C 3.929688 -4.945312 4.109375 -4.570312 4.109375 -4.03125 C 4.109375 -3.46875 3.925781 -3.078125 3.5625 -2.859375 C 3.195312 -2.648438 2.707031 -2.546875 2.09375 -2.546875 L 1.21875 -2.546875 L 1.21875 0 L 0.671875 0 L 0.671875 -5.484375 Z M 2.125 -3.09375 C 2.414062 -3.09375 2.660156 -3.117188 2.859375 -3.171875 C 3.066406 -3.222656 3.226562 -3.316406 3.34375 -3.453125 C 3.46875 -3.585938 3.53125 -3.78125 3.53125 -4.03125 C 3.53125 -4.375 3.410156 -4.613281 3.171875 -4.75 C 2.929688 -4.882812 2.601562 -4.953125 2.1875 -4.953125 L 1.21875 -4.953125 L 1.21875 -3.09375 Z M 2.125 -3.09375 "/></g></g></g></g><g style="fill:#e75e75;fill-opacity:1;"><g transform="translate(87.911497, 301.833175)"><path style="stroke:none" d="M 7.796875 -9.6875 L 8.78125 -9.6875 L 8.78125 0 L 8.5625 0 L 2.140625 -7.328125 L 2.140625 0 L 1.171875 0 L 1.171875 -9.6875 L 1.375 -9.6875 L 7.796875 -2.265625 Z M 7.796875 -9.6875 "/></g></g><g style="fill:#e75e75;fill-opacity:1;"><g transform="translate(108.647435, 301.833175)"><path style="stroke:none" d="M 1.171875 -9.6875 L 6.703125 -9.6875 L 6.703125 -8.765625 L 2.140625 -8.765625 L 2.140625 -5.703125 L 6.703125 -5.703125 L 6.703125 -4.78125 L 2.140625 -4.78125 L 2.140625 -0.9375 L 6.703125 -0.9375 L 6.703125 0 L 1.171875 0 Z M 1.171875 -9.6875 "/></g></g><g style="fill:#e75e75;fill-opacity:1;"><g transform="translate(126.669887, 301.833175)"><path style="stroke:none" d="M 4.421875 0.25 C 3.765625 0.25 3.195312 0.101562 2.71875 -0.1875 C 2.238281 -0.476562 1.867188 -0.894531 1.609375 -1.4375 C 1.347656 -1.976562 1.21875 -2.628906 1.21875 -3.390625 L 1.21875 -9.6875 L 2.1875 -9.6875 L 2.1875 -3.203125 C 2.1875 -2.710938 2.269531 -2.28125 2.4375 -1.90625 C 2.601562 -1.53125 2.851562 -1.234375 3.1875 -1.015625 C 3.53125 -0.804688 3.941406 -0.703125 4.421875 -0.703125 C 4.921875 -0.703125 5.335938 -0.804688 5.671875 -1.015625 C 6.003906 -1.234375 6.253906 -1.53125 6.421875 -1.90625 C 6.585938 -2.28125 6.671875 -2.695312 6.671875 -3.15625 L 6.671875 -9.6875 L 7.640625 -9.6875 L 7.640625 -3.390625 C 7.640625 -2.628906 7.507812 -1.976562 7.25 -1.4375 C 6.988281 -0.894531 6.613281 -0.476562 6.125 -0.1875 C 5.644531 0.101562 5.078125 0.25 4.421875 0.25 Z M 4.421875 0.25 "/></g></g><g style="fill:#e75e75;fill-opacity:1;"><g transform="translate(146.312331, 301.833175)"><path style="stroke:none" d="M 2.40625 -8.75 L 0.21875 -8.75 L 0.21875 -9.6875 L 5.53125 -9.6875 L 5.53125 -8.75 L 3.375 -8.75 L 3.375 0 L 2.40625 0 Z M 2.40625 -8.75 "/></g></g><g style="fill:#e75e75;fill-opacity:1;"><g transform="translate(162.86329, 301.833175)"><path style="stroke:none" d="M 3.9375 -9.6875 C 5.050781 -9.6875 5.878906 -9.457031 6.421875 -9 C 6.972656 -8.539062 7.25 -7.910156 7.25 -7.109375 C 7.25 -6.535156 7.109375 -6.054688 6.828125 -5.671875 C 6.546875 -5.285156 6.15625 -4.992188 5.65625 -4.796875 C 5.15625 -4.609375 4.566406 -4.515625 3.890625 -4.515625 L 7.390625 0 L 6.1875 0 L 2.75 -4.515625 L 2.140625 -4.515625 L 2.140625 0 L 1.171875 0 L 1.171875 -9.6875 Z M 3.890625 -5.453125 C 4.640625 -5.453125 5.21875 -5.585938 5.625 -5.859375 C 6.03125 -6.128906 6.234375 -6.546875 6.234375 -7.109375 C 6.234375 -7.609375 6.054688 -8.003906 5.703125 -8.296875 C 5.359375 -8.597656 4.832031 -8.75 4.125 -8.75 L 2.140625 -8.75 L 2.140625 -5.453125 Z M 3.890625 -5.453125 "/></g></g><g style="fill:#e75e75;fill-opacity:1;"><g transform="translate(181.655231, 301.833175)"><path style="stroke:none" d="M 5.875 0.25 C 4.90625 0.25 4.03125 0.0195312 3.25 -0.4375 C 2.46875 -0.90625 1.851562 -1.523438 1.40625 -2.296875 C 0.96875 -3.066406 0.75 -3.90625 0.75 -4.8125 C 0.75 -5.75 0.972656 -6.609375 1.421875 -7.390625 C 1.878906 -8.179688 2.492188 -8.800781 3.265625 -9.25 C 4.035156 -9.707031 4.878906 -9.9375 5.796875 -9.9375 C 6.753906 -9.9375 7.628906 -9.710938 8.421875 -9.265625 C 9.210938 -8.816406 9.832031 -8.203125 10.28125 -7.421875 C 10.738281 -6.648438 10.96875 -5.789062 10.96875 -4.84375 C 10.96875 -3.90625 10.742188 -3.046875 10.296875 -2.265625 C 9.847656 -1.492188 9.234375 -0.878906 8.453125 -0.421875 C 7.679688 0.0234375 6.820312 0.25 5.875 0.25 Z M 5.84375 -0.703125 C 6.59375 -0.703125 7.28125 -0.878906 7.90625 -1.234375 C 8.539062 -1.585938 9.039062 -2.082031 9.40625 -2.71875 C 9.78125 -3.351562 9.96875 -4.066406 9.96875 -4.859375 C 9.96875 -5.648438 9.773438 -6.359375 9.390625 -6.984375 C 9.003906 -7.617188 8.492188 -8.109375 7.859375 -8.453125 C 7.234375 -8.804688 6.5625 -8.984375 5.84375 -8.984375 C 5.132812 -8.984375 4.46875 -8.804688 3.84375 -8.453125 C 3.21875 -8.097656 2.710938 -7.597656 2.328125 -6.953125 C 1.953125 -6.316406 1.765625 -5.601562 1.765625 -4.8125 C 1.765625 -4.03125 1.953125 -3.328125 2.328125 -2.703125 C 2.703125 -2.078125 3.195312 -1.585938 3.8125 -1.234375 C 4.4375 -0.878906 5.113281 -0.703125 5.84375 -0.703125 Z M 5.84375 -0.703125 "/></g></g><g style="fill:#e75e75;fill-opacity:1;"><g transform="translate(204.186655, 301.833175)"><path style="stroke:none" d="M 7.796875 -9.6875 L 8.78125 -9.6875 L 8.78125 0 L 8.5625 0 L 2.140625 -7.328125 L 2.140625 0 L 1.171875 0 L 1.171875 -9.6875 L 1.375 -9.6875 L 7.796875 -2.265625 Z M 7.796875 -9.6875 "/></g></g><g style="fill:#e75e75;fill-opacity:1;"><g transform="translate(224.922593, 301.833175)"><path style="stroke:none" d="M 2.40625 -8.75 L 0.21875 -8.75 L 0.21875 -9.6875 L 5.53125 -9.6875 L 5.53125 -8.75 L 3.375 -8.75 L 3.375 0 L 2.40625 0 Z M 2.40625 -8.75 "/></g></g><g style="fill:#e75e75;fill-opacity:1;"><g transform="translate(241.473552, 301.833175)"><path style="stroke:none" d="M 1.171875 -9.6875 L 6.703125 -9.6875 L 6.703125 -8.765625 L 2.140625 -8.765625 L 2.140625 -5.703125 L 6.703125 -5.703125 L 6.703125 -4.78125 L 2.140625 -4.78125 L 2.140625 -0.9375 L 6.703125 -0.9375 L 6.703125 0 L 1.171875 0 Z M 1.171875 -9.6875 "/></g></g><g style="fill:#e75e75;fill-opacity:1;"><g transform="translate(259.496004, 301.833175)"><path style="stroke:none" d="M 5.984375 0.234375 C 4.929688 0.234375 4.007812 0.00390625 3.21875 -0.453125 C 2.425781 -0.910156 1.816406 -1.523438 1.390625 -2.296875 C 0.960938 -3.078125 0.75 -3.945312 0.75 -4.90625 C 0.75 -5.84375 0.972656 -6.691406 1.421875 -7.453125 C 1.878906 -8.222656 2.503906 -8.828125 3.296875 -9.265625 C 4.097656 -9.710938 4.992188 -9.9375 5.984375 -9.9375 C 6.859375 -9.9375 7.65625 -9.757812 8.375 -9.40625 C 9.101562 -9.0625 9.703125 -8.554688 10.171875 -7.890625 L 9.390625 -7.3125 C 8.984375 -7.863281 8.488281 -8.28125 7.90625 -8.5625 C 7.320312 -8.84375 6.6875 -8.984375 6 -8.984375 C 5.226562 -8.984375 4.519531 -8.804688 3.875 -8.453125 C 3.238281 -8.097656 2.726562 -7.601562 2.34375 -6.96875 C 1.957031 -6.332031 1.765625 -5.613281 1.765625 -4.8125 C 1.765625 -4.019531 1.953125 -3.304688 2.328125 -2.671875 C 2.703125 -2.046875 3.210938 -1.550781 3.859375 -1.1875 C 4.515625 -0.832031 5.242188 -0.65625 6.046875 -0.65625 C 6.722656 -0.65625 7.347656 -0.789062 7.921875 -1.0625 C 8.492188 -1.332031 9.003906 -1.734375 9.453125 -2.265625 L 10.21875 -1.6875 C 9.726562 -1.0625 9.117188 -0.582031 8.390625 -0.25 C 7.660156 0.0703125 6.859375 0.234375 5.984375 0.234375 Z M 5.984375 0.234375 "/></g></g><g style="fill:#e75e75;fill-opacity:1;"><g transform="translate(281.284913, 301.833175)"><path style="stroke:none" d="M 1.171875 -9.6875 L 2.140625 -9.6875 L 2.140625 -5.625 L 7.09375 -5.625 L 7.09375 -9.6875 L 8.0625 -9.6875 L 8.0625 0 L 7.09375 0 L 7.09375 -4.6875 L 2.140625 -4.6875 L 2.140625 0 L 1.171875 0 Z M 1.171875 -9.6875 "/></g></g></g></svg>